<?xml version="1.0" encoding="UTF-8" standalone="no"?>
<!-- Created with Inkscape (http://www.inkscape.org/) -->

<svg
   version="1.1"
   id="svg1"
   width="2666.6667"
   height="2666.6667"
   viewBox="0 0 2666.6667 2666.6667"
   sodipodi:docname="vecteezy_scented-candle-and-flower-line-icon-aroma-therapy-diffuser_11892647.eps"
   xmlns:inkscape="http://www.inkscape.org/namespaces/inkscape"
   xmlns:sodipodi="http://sodipodi.sourceforge.net/DTD/sodipodi-0.dtd"
   xmlns="http://www.w3.org/2000/svg"
   xmlns:svg="http://www.w3.org/2000/svg">
  <defs
     id="defs1" />
  <sodipodi:namedview
     id="namedview1"
     pagecolor="#ffffff"
     bordercolor="#000000"
     borderopacity="0.25"
     inkscape:showpageshadow="2"
     inkscape:pageopacity="0.0"
     inkscape:pagecheckerboard="0"
     inkscape:deskcolor="#d1d1d1">
    <inkscape:page
       x="0"
       y="0"
       inkscape:label="1"
       id="page1"
       width="2666.6667"
       height="2666.6667"
       margin="0"
       bleed="0" />
  </sodipodi:namedview>
  <g
     id="g1"
     inkscape:groupmode="layer"
     inkscape:label="1">
    <g
       id="group-R5">
      <path
         id="path2"
         d="M 20000,0 H 0 V 20000 H 20000 V 0"
         style="fill:#ffffff;fill-opacity:1;fill-rule:nonzero;stroke:none"
         transform="matrix(0.13333333,0,0,-0.13333333,0,2666.6667)" />
      <path
         id="path3"
         d="m 6491.09,3893.2 v 8133.1"
         style="fill:none;stroke:#000000;stroke-width:400;stroke-linecap:round;stroke-linejoin:round;stroke-miterlimit:10;stroke-dasharray:none;stroke-opacity:1"
         transform="matrix(0.13333333,0,0,-0.13333333,0,2666.6667)" />
      <path
         id="path4"
         d="m 12708.9,9869.8 v 2156.5"
         style="fill:none;stroke:#000000;stroke-width:400;stroke-linecap:round;stroke-linejoin:round;stroke-miterlimit:10;stroke-dasharray:none;stroke-opacity:1"
         transform="matrix(0.13333333,0,0,-0.13333333,0,2666.6667)" />
      <path
         id="path5"
         d="m 6491.08,3893.2 c 0,-268.2 993.4,-493.5 2337,-556.9"
         style="fill:none;stroke:#000000;stroke-width:400;stroke-linecap:round;stroke-linejoin:round;stroke-miterlimit:10;stroke-dasharray:none;stroke-opacity:1"
         transform="matrix(0.13333333,0,0,-0.13333333,0,2666.6667)" />
      <path
         id="path6"
         d="m 8460.39,12561 c -1153.18,-83.9 -1969.3,-291.8 -1969.3,-534.7 0,-258 919.81,-476.1 2186.25,-548.8 584.69,-34.1 1251.25,-34.6 1845.36,0 1266.4,72.7 2186.2,290.8 2186.2,548.8 0,242.9 -816.1,450.8 -1969.5,534.7"
         style="fill:none;stroke:#000000;stroke-width:400;stroke-linecap:round;stroke-linejoin:round;stroke-miterlimit:10;stroke-dasharray:none;stroke-opacity:1"
         transform="matrix(0.13333333,0,0,-0.13333333,0,2666.6667)" />
      <path
         id="path7"
         d="m 9599.93,12146 v 1075.6"
         style="fill:none;stroke:#000000;stroke-width:400;stroke-linecap:round;stroke-linejoin:round;stroke-miterlimit:10;stroke-dasharray:none;stroke-opacity:1"
         transform="matrix(0.13333333,0,0,-0.13333333,0,2666.6667)" />
      <path
         id="path8"
         d="m 9539.71,13221.6 c 562.29,0 1168.69,561.9 1168.59,1154.6 6.9,1251.5 -1168.59,2305.4 -1168.59,2305.4 -2.86,-7.3 15.4,-792.5 -625.35,-1346.9 -327.72,-283.5 -491.03,-720.6 -396.1,-1150.5 114.81,-520 499.57,-962.6 1021.45,-962.6 z"
         style="fill:none;stroke:#000000;stroke-width:400;stroke-linecap:round;stroke-linejoin:round;stroke-miterlimit:10;stroke-dasharray:none;stroke-opacity:1"
         transform="matrix(0.13333333,0,0,-0.13333333,0,2666.6667)" />
      <path
         id="path9"
         d="m 13711.7,5798 c 30.5,192.5 46.4,391.2 46.4,594.4 0,1034.2 -411.8,1952.8 -1049.3,2531.9 -637.4,-579.4 -1049.1,-1497.7 -1049.1,-2531.9 0,-203.2 15.9,-401.9 46.4,-594.4"
         style="fill:none;stroke:#000000;stroke-width:400;stroke-linecap:round;stroke-linejoin:round;stroke-miterlimit:10;stroke-dasharray:none;stroke-opacity:1"
         transform="matrix(0.13333333,0,0,-0.13333333,0,2666.6667)" />
      <path
         id="path10"
         d="m 15805.6,6451.6 c 122.3,335.9 176.6,681 160.7,1011.9 -547.5,26.3 -1133.8,-139.6 -1653.4,-488"
         style="fill:none;stroke:#000000;stroke-width:400;stroke-linecap:round;stroke-linejoin:round;stroke-miterlimit:10;stroke-dasharray:none;stroke-opacity:1"
         transform="matrix(0.13333333,0,0,-0.13333333,0,2666.6667)" />
      <path
         id="path11"
         d="m 11104.9,6975.5 c -519.6,348.4 -1105.85,514.3 -1653.44,488 -15.89,-330.9 38.42,-676 160.79,-1011.9"
         style="fill:none;stroke:#000000;stroke-width:400;stroke-linecap:round;stroke-linejoin:round;stroke-miterlimit:10;stroke-dasharray:none;stroke-opacity:1"
         transform="matrix(0.13333333,0,0,-0.13333333,0,2666.6667)" />
      <path
         id="path12"
         d="m 10688.6,5535.6 c 971.7,-353.7 1693.9,-1054.6 2020.3,-1851.7 -762.2,-400.9 -1766.2,-473.7 -2737.97,-120 -971.72,353.6 -1694.06,1054.8 -2020.26,1851.9 762.4,400.8 1766.2,473.5 2737.93,119.8 z"
         style="fill:none;stroke:#000000;stroke-width:400;stroke-linecap:round;stroke-linejoin:round;stroke-miterlimit:10;stroke-dasharray:none;stroke-opacity:1"
         transform="matrix(0.13333333,0,0,-0.13333333,0,2666.6667)" />
      <path
         id="path13"
         d="M 14729.2,5535.6 C 13757.5,5181.9 13035.3,4481 12708.9,3683.9 c 762.2,-400.9 1766.3,-473.7 2738,-120 971.7,353.6 1694.1,1054.8 2020.3,1851.9 -762.4,400.8 -1766.2,473.5 -2738,119.8 z"
         style="fill:none;stroke:#000000;stroke-width:400;stroke-linecap:round;stroke-linejoin:round;stroke-miterlimit:10;stroke-dasharray:none;stroke-opacity:1"
         transform="matrix(0.13333333,0,0,-0.13333333,0,2666.6667)" />
    </g>
  </g>
</svg>
